<svg width="785" height="211" viewBox="0 0 785 211" fill="none" xmlns="http://www.w3.org/2000/svg">
<path d="M0.0246098 133.201C-0.200111 131.324 1.13926 129.62 3.01621 129.395L123.594 115.117L153.689 111.513L251.794 99.9445C253.671 99.7197 255.375 101.059 255.6 102.936L257.634 119.929C257.859 121.806 256.52 123.51 254.643 123.735L153.391 135.68L106.342 141.315L5.86477 153.185C3.98773 153.41 2.28386 152.071 2.05913 150.194L0.0246098 133.201Z" fill="white"/>
<path d="M59.1532 27.9392C58.2416 26.2831 58.8452 24.2016 60.5013 23.29L75.4955 15.0372C77.1516 14.1256 79.2331 14.7292 80.1447 16.3853L117.724 82.6094C118.636 84.2655 118.032 86.3471 116.376 87.2586L101.382 95.5115C99.726 96.423 97.6445 95.8194 96.733 94.1633L59.1532 27.9392ZM127.827 138.928C126.915 137.272 127.519 135.19 129.175 134.279L144.169 126.026C145.825 125.114 147.907 125.718 148.818 127.374L153.391 135.68L187.481 197.613C188.392 199.269 187.789 201.351 186.132 202.262L171.138 210.515C169.482 211.427 167.401 210.823 166.489 209.167L131.922 146.368L127.827 138.928Z" fill="white"/>
<path d="M198.372 6.1626C200.144 6.81965 201.048 8.78923 200.391 10.5618L197.417 18.5851L196.226 21.7731C184.455 52.9898 170.195 82.9836 153.689 111.513C146.817 123.391 139.556 135.015 131.922 146.368C122.205 160.821 111.885 174.833 100.999 188.371C99.9239 189.708 97.9464 189.862 96.6705 188.714L83.2958 176.683C82.1091 175.615 81.9666 173.806 82.9648 172.56C91.0936 162.416 98.8915 151.995 106.342 141.315C112.319 132.747 118.073 124.011 123.594 115.117C144.033 82.196 161.294 47.0998 174.95 10.2575L177.926 2.23375C178.583 0.461425 180.552 -0.442662 182.325 0.214331L198.372 6.1626Z" fill="white"/>
<path d="M333.108 131.469L292.395 71.6448V69.2447H301.285L342.086 129.069V131.469H333.108ZM292.395 131.469V69.2447H301.285V131.469H292.395ZM333.108 131.469V69.2447H342.086V131.469H333.108ZM373.015 132.714C368.571 132.714 364.63 131.736 361.193 129.78C357.815 127.765 355.177 124.98 353.281 121.424C351.385 117.869 350.437 113.75 350.437 109.068C350.437 104.387 351.355 100.298 353.192 96.8013C355.089 93.2456 357.696 90.49 361.015 88.5343C364.393 86.5195 368.274 85.512 372.66 85.512C376.986 85.512 380.749 86.5195 383.949 88.5343C387.208 90.5492 389.727 93.3938 391.505 97.068C393.342 100.683 394.26 104.92 394.26 109.78V111.113L392.927 112.446H354.97V104.624H389.994L385.46 106.402C385.342 103.735 384.69 101.453 383.504 99.557C382.378 97.6606 380.867 96.2087 378.971 95.2013C377.134 94.1346 375.06 93.6012 372.749 93.6012C370.26 93.6012 367.978 94.1938 365.904 95.379C363.83 96.5643 362.2 98.2236 361.015 100.357C359.889 102.431 359.326 104.861 359.326 107.646V110.313C359.326 113.039 359.918 115.498 361.104 117.691C362.289 119.824 363.919 121.513 365.993 122.758C368.067 124.002 370.408 124.625 373.015 124.625C375.504 124.625 377.697 124.002 379.593 122.758C381.549 121.454 383.09 119.736 384.216 117.602H385.282L392.483 120.713C390.764 124.447 388.216 127.38 384.838 129.514C381.46 131.647 377.519 132.714 373.015 132.714ZM442.203 86.7565V131.469H433.758V119.469L436.159 120.18C435.27 122.728 433.936 124.951 432.158 126.847C430.381 128.684 428.277 130.136 425.847 131.203C423.477 132.21 420.899 132.714 418.113 132.714C414.973 132.714 412.128 132.032 409.58 130.669C407.032 129.247 405.017 127.202 403.535 124.536C402.054 121.81 401.313 118.461 401.313 114.491V86.7565H410.202V112.002C410.202 114.965 410.617 117.365 411.446 119.202C412.335 121.039 413.55 122.373 415.091 123.202C416.632 123.973 418.41 124.358 420.425 124.358C422.44 124.358 424.425 123.854 426.38 122.847C428.395 121.839 430.055 120.269 431.358 118.135C432.662 116.002 433.314 113.246 433.314 109.868V86.7565H442.203ZM452.065 131.469V86.7565H460.509V98.7569L458.109 97.9569C459.295 94.5198 461.309 91.7937 464.154 89.7788C467.058 87.7639 470.376 86.7565 474.11 86.7565H478.466V94.9346H472.688C470.317 94.9346 468.243 95.4976 466.465 96.6235C464.747 97.6902 463.384 99.2014 462.376 101.157C461.428 103.113 460.954 105.424 460.954 108.091V131.469H452.065ZM495.405 132.714C492.383 132.714 489.657 132.121 487.227 130.936C484.857 129.751 482.99 128.121 481.627 126.047C480.264 123.913 479.582 121.484 479.582 118.758C479.582 114.669 481.005 111.409 483.849 108.98C486.694 106.491 490.724 105.039 495.939 104.624L513.184 103.202V110.846L497.45 112.091C494.427 112.328 492.205 112.98 490.783 114.046C489.361 115.113 488.649 116.565 488.649 118.402C488.649 120.18 489.42 121.662 490.961 122.847C492.501 123.973 494.457 124.536 496.827 124.536C499.316 124.536 501.568 123.943 503.583 122.758C505.657 121.573 507.287 120.002 508.472 118.047C509.658 116.032 510.25 113.869 510.25 111.557V104.268C510.25 101.127 509.243 98.5495 507.228 96.5346C505.272 94.5198 502.665 93.5123 499.405 93.5123C496.679 93.5123 494.398 94.1642 492.561 95.4679C490.783 96.7717 489.598 98.4903 489.005 100.624H488.027L480.382 98.4903C481.568 94.5198 483.82 91.3493 487.138 88.9788C490.457 86.6083 494.546 85.4231 499.405 85.4231C505.628 85.4231 510.458 87.2602 513.895 90.9344C517.332 94.5494 519.051 99.6459 519.051 106.224V131.469H510.872V118.491L514.073 119.469C513.361 121.899 512.087 124.121 510.25 126.136C508.472 128.151 506.309 129.751 503.761 130.936C501.213 132.121 498.428 132.714 495.405 132.714ZM529.859 131.469V67.4669L538.482 66.4002L538.749 67.1113V131.469H529.859ZM590.234 131.469L567.744 71.1115L567.211 69.2447H576.1L599.745 130.758V131.469H590.234ZM543.565 131.469V130.758L567.211 69.2447H576.1L575.389 71.1115L552.899 131.469H543.565ZM553.344 116.091L556.01 107.557H588.1L590.767 116.091H553.344ZM604.074 131.469V86.7565H612.519V98.7569L610.119 97.9569C611.304 94.5198 613.319 91.7937 616.163 89.7788C619.067 87.7639 622.386 86.7565 626.119 86.7565H630.475V94.9346H624.697C622.326 94.9346 620.252 95.4976 618.474 96.6235C616.756 97.6902 615.393 99.2014 614.385 101.157C613.437 103.113 612.963 105.424 612.963 108.091V131.469H604.074ZM653.904 132.714C649.4 132.714 645.429 131.736 641.992 129.78C638.555 127.765 635.858 124.98 633.903 121.424C632.006 117.869 631.058 113.75 631.058 109.068C631.058 104.387 632.006 100.298 633.903 96.8013C635.858 93.2456 638.555 90.49 641.992 88.5343C645.429 86.5195 649.4 85.512 653.904 85.512C657.4 85.512 660.511 86.1046 663.237 87.2899C666.023 88.4751 668.393 90.2233 670.349 92.5345C672.304 94.7864 673.756 97.5717 674.704 100.89L667.149 103.024H666.171C665.223 100.12 663.622 97.8384 661.371 96.1791C659.178 94.5198 656.689 93.6901 653.904 93.6901C651.059 93.6901 648.6 94.342 646.526 95.6457C644.451 96.9495 642.822 98.757 641.636 101.068C640.51 103.32 639.947 105.987 639.947 109.068C639.947 112.15 640.51 114.846 641.636 117.158C642.822 119.469 644.451 121.276 646.526 122.58C648.6 123.825 651.059 124.447 653.904 124.447C655.918 124.447 657.756 124.091 659.415 123.38C661.074 122.669 662.496 121.632 663.682 120.269C664.926 118.847 665.874 117.158 666.526 115.202H667.504L675.149 117.335C674.082 120.654 672.541 123.469 670.526 125.78C668.512 128.091 666.111 129.84 663.326 131.025C660.6 132.151 657.459 132.714 653.904 132.714Z" fill="white"/>
<path d="M678.499 70.2412V50.5702H680.607V70.2412H678.499ZM672.317 52.6216V50.5702H686.761V52.6216H672.317ZM698.042 70.2412L698.07 69.6511L706.22 50.5702H708.215V51.1604L700.066 70.2412H698.042ZM689.162 70.2412V50.5702H691.27V70.2412H689.162ZM698.07 70.2412L689.893 51.1604V50.5702H691.916L700.066 69.6511V70.2412H698.07ZM706.838 70.2412V50.5702H708.946V70.2412H706.838Z" fill="white"/>
</svg>
